<svg version="1.2" xmlns="http://www.w3.org/2000/svg" viewBox="0 0 500 60" width="200" height="62">
	<title>admin-logo-svg</title>
	<style>
		.s0 { opacity: 1;fill: #f60d1d } 
		.s1 { opacity: 1;fill: #000000 } 
		.s2 { opacity: .9;fill: #000000 } 
		.s3 { opacity: .8;fill: #000000 } 
	</style>
	<g id="Layer">
		<path id="Layer" fill-rule="evenodd" class="s0" d="m41.1 0q0 0 0.1 0 1.1 0.8 2.3 1.6 0.9 1 1.9 2.1 1 0.6 2.3 0.9 0.3 0 0.3-0.4-0.9-1.3-1.5-2.8 0-0.2 0-0.4 0.5-0.1 1 0.2 0.9 0.8 1.8 1.7 1.3 1 2.9 1.4 0.4-0.1 0.2-0.4-0.6-0.8-0.7-1.7 0-0.5 0.3-0.9 0.1-0.2 0.2-0.1 0.5 1.5 1.8 2.3 1.9 0.9 3.6 2.1 0.4 0.4 0.8 0.9 0.7 1.3 1.8 2.3 1 0.5 1.9 0.9 0.7 0.4 1.3 0.9 0.9 0.5 1.8 0.9 1 0.5 1.7 1.3 0.5 0.8 0.7 1.9 0.4 1.8 1 3.6 0.3 0.5 0.6 1 0.1 0.3 0.3 0.4-1.2-0.3-1.7-1.4-0.6-1.3-1.2-2.7-0.2-0.2-0.4-0.4-0.1 0.2-0.1 0.4 0.3 1.6 1.1 3 0.2 0.6 0.3 1.2 0.7 1.1 1.4 2.1 0.4 0.8 0.7 1.6 0.4 0.7 0.8 1.4 0.2 0.5 0.2 1.1-0.1 0.8-0.1 1.7 0.4 1.6 0.9 3.3 0.1 0.5 0 1-0.2 0.9-0.2 1.8 0.1 0.9 0.2 1.9 0 0.1-0.1 0.3-0.4 0.8-0.8 1.7-0.1 0.8-0.1 1.7-0.1 0.7-0.7 1.1-0.1 0.3-0.2 0.5 0 0.8-0.1 1.7-1.3 2.5-2.7 5.1-0.3 0.7-0.6 1.5-0.5 0.7-1.2 1.4-0.6 1-1.3 1.9-1.4 1.5-3.4 2-1 0.2-2 0.4 0 0.3 0.4 0.3 1.4 0.2 2.7-0.3 0.8-0.1 1.5 0.2 0.2 0.1 0.3 0.2-0.1 0.1-0.3 0.2-0.5 0.1-0.9 0.3-1.1 0.6-2.3 1-0.8 0.1-1.5 0-1.3-0.3-2.6-0.5-0.5-0.1-1 0-0.2 0.2 0.1 0.3 0.7 0.1 1.4 0.4 0.5 0.4 0.9 0.9 0.6 0.4 1.2 0.7-1.6 0.6-3.1 0-1.2-0.8-2.5-1.1-1.2-0.2-2.5-0.1-0.4 0-0.2 0.3 0.7 0.3 1.3 0.5 0.7 0.6 1.5 1.1-0.3 0.1-0.6 0.2-1.2 0.1-2.4-0.2-0.6-0.3-1.3-0.5-1.2-0.4-2.2 0.3-1 0.6-1.9 1.3-1 0.8-2.3 0.9-1.7 0.2-3.5 0-1.2-0.4-2.4-0.8-0.4-0.3 0-0.5 0.2-0.1 0.4-0.1 1.7 0.2 3.4 0.6 1-0.2 1.9-0.7 0.1-0.1 0-0.2-0.2 0-0.4-0.1-0.9 0.2-1.9 0.1-1-0.2-1.9-0.3-2.1-0.3-3.9 0.6-1.3 0.9-2.7 1.6-0.7 0.3-1.5 0.4-0.4 0-0.9 0-0.9-0.1-1.8-0.2 0-0.1 0-0.2 1.6-0.7 2.9-2 1.1-0.9 2.6-1.3 0-0.1 0.1-0.1-0.1-0.2-0.3-0.3-1.4-0.4-2.8-0.3-2.6 0.5-5.1 0.9-2.5 0.3-4.8-0.5-1.5-0.8-3-1.6-2.7-1-5.5-0.7-0.7 0-1.4 0.1-0.2 0-0.4-0.2 2.1-1.1 4.4-1.2 1.4-0.1 2.9-0.1 1 0.2 2.1 0.6 0.5 0.1 1 0 0.5-0.3 0-0.5-0.8-0.1-1.5-0.4-1.4-0.6-2.7-1.3-0.6-0.2-1.2-0.2-1.6-0.1-3.3-0.2-2.6-0.1-4.7-1.7-0.5-0.5-0.9-1-0.8-1.4-2-2.5 0.1-0.1 0.3-0.2 1.9-0.1 3.7 0.3 1 0.3 1.7 1.2 0.5 0.2 1 0.3 3-0.4 5.9-0.7 0.1 0 0.1-0.1-0.2-0.2-0.4-0.4-1.1-0.3-2.3-0.4-1.2 0.1-2.4 0.2-1.1 0.1-2.1-0.6-0.6-0.4-1.1-0.9-0.4-0.3-0.9-0.5-1.6-0.3-3.3-0.5-2.4-0.4-2.4-2.8 0.1-1.2 0.3-2.4-0.1-1.1-0.5-2-0.4-0.4-0.7-0.8 0-0.1 0-0.2 0 0 0-0.1 1.4-0.1 2.5 0.9 0.3 0.3 0.4 0.8 0.3 1.1 0.6 2.3 0.4 0.7 1.3 0.7 1-0.2 2-0.5 0.7-0.1 1.3 0.3 0.6 0.7 1.5 1.1 0.7 0 1.4 0 1.3-0.4 2.6-0.5 0.4 0 0.9 0.2 0.2-0.1 0.2-0.3-0.4-1.3-1.8-1-1.1 0.1-2.1 0.3-0.6 0.1-1.2-0.2-1.3-1.1-3.1-1-0.3-0.2-0.6-0.4-0.8-1.3-1.6-2.7-1.6-2.1-4.2-1.8-0.1-0.1-0.1-0.1 0-0.1 0-0.3 0.1-0.2 0.4-0.4 0.5-0.2 1.1-0.3 1.3-0.1 2.6 0.1 0.6 0.1 1.1 0.4 0.7 0.7 1.3 1.4 1.3 1 2.9 0.8 0.4-0.1 0.8-0.2 0.8-0.7 1.7-1.2 1-0.3 2-0.6 0-0.2-0.1-0.3-0.5-0.1-1-0.2-1.1 0.2-2.2 0.6-0.8 0-1.4-0.5-0.9-0.7-1.7-1.4-0.3-0.3-0.3-0.6 0.7-0.2 1.3-0.4 0.5-0.1 1 0 1.2 0.3 2.3 0.5 0.6 0 1.1-0.2 1.4-0.7 2.9-0.7 1.3 0.1 2.6 0.1 1.3-0.3 1.6-1.6 0.1-0.9 0.2-1.8 0.2-0.3 0.3-0.5 1-0.7 1-2-0.2-0.9-0.1-1.9 0.4-1 0.9-2 0.3-1.5 0.6-3 0.2-0.8 0.5-1.5 0.3-1.6 0.6-3.1 0.5-1 1.2-2 0.9-1.1 1.9-2.1 0.1-0.1 0.1-0.2-0.1-0.3-0.4-0.4-1.1-0.5-2.3-0.1 0-0.1 0-0.1 0.1-0.8 0.9-0.9 1.4-0.1 2.9 0 0.6-0.1 1.1-0.4 0.3-0.2 0-0.4-0.6-0.2-1-0.7-0.5-0.8-1-1.6-0.6-0.4-1.4-0.4-0.1-0.1-0.2-0.1-0.1-0.1 0-0.2 0.3-0.4 0.8-0.4 1.9-0.5 3.3 0.7 1.1 0.7 2.4 0.6 0.2-0.2 0.1-0.4-0.4-0.2-0.7-0.4-0.5-0.7-1-1.5-0.2-0.5-0.1-1 0.3-0.2 0.5 0 0.9 0.9 2.1 1.1 0.8 0.1 1.6 0 1.4-0.2 2.7-0.5 0.8-0.1 1.6 0 0.3 0 0.6 0.1 1.1 0.5 2.1 1 0.3 0.2 0.6 0.1 0.1-0.1 0.2-0.2-0.1-0.4-0.3-0.7-0.6-0.8-1.2-1.5-0.3-0.6 0-1.2zm-4 4.4q-1 0.1-1.6 0.8 0.1 0.2 0.3 0.2 0.5 0 0.9 0.1 0.2 0 0.1 0.2-1.3 0.2-2.6 0.3-1.2 0.7-2.3 1.6-0.7 0.7-1.6 1.3-2.1 2.1-3.7 4.7-2.5 4.3-3.4 9.2-0.2 1.4-0.5 2.8-0.1 2.6-0.2 5.3-0.1 0.4-0.3 0.9-1.5 1.4-3.7 1.2-1.1-0.2-2.3-0.3-0.2-0.1-0.4 0.1 0.2 0.4 0.6 0.6 1 1.2 2.2 2.1-0.3 0.5-0.8 0.7-1.9 0.6-4 0.4-0.3 0.1-0.6 0.2-1.3 0.8-2.8 0.6-0.2 0.3 0.1 0.6 0.5 0.4 1.1 0.6 1.9 0.3 3.8 0.4 0.9 0.1 1.3 1 0.6 1.1 1.2 2.3 0.4 0.4 1 0.7-0.3 0.4-0.7 0.6-1.1 0.6-2.4 0.9-0.9 0.1-1.6-0.1-0.7-0.3-1.3-0.7-0.7-0.3-1.5-0.3-0.7 0.1-1.4 0.1-0.6-0.2-1.2-0.3-0.1 0-0.2 0 0.4 0.7 1.2 1.1 1.1 0.3 2.3 0.6 0.8 0.3 1.5 0.8 1.6 0.3 3.2 0.6 2.1 0.4 3.1 2.2 0.1 0.4 0 0.7-0.8 0-1.7 0.1-1.1 0.4-2.2 0.8-0.6 0.1-1.3 0.2-1.4 0.3-2.7-0.3-0.1 0.2-0.1 0.5 1.5 1 3.4 0.9 1.4-0.1 2.8-0.1 2.5 0.2 4.2 2.1 0.4 0.4 0.3 0.9-0.7 1-1.9 1.1-0.2 0.1-0.1 0.3 0.4 0.5 1 0.6 0.9 0.3 1.8 0 1.8-0.5 3.5-1 0.7 0 1.4-0.1 1.3 0.2 2.7 0.3 0.3 0 0.7-0.1 0.1-0.1-0.1-0.3-0.9-0.5-1.9-1-2.2-0.7-4.6-0.6-0.2 0-0.4-0.1-0.8-1-1.5-2-0.3-0.3-0.7-0.5-0.2-0.1-0.1-0.4 0.4-0.1 0.8-0.2 0.2-0.1 0.4-0.3-0.6-0.5-1.1-1-0.2-0.3-0.4-0.6-0.4-1.4-1.5-2.3-0.9-0.6-1.6-1.2 0.5-0.2 1.1-0.3 0.5-0.4 1.1-0.8 0.7-0.6 1-1.3 0-0.2-0.2-0.3-0.4-0.1-0.8-0.1-1.5-0.6-2.1-2-0.4-1.1-0.8-2.2 0.1-0.2 0.3-0.2 0.7-0.1 1.5-0.4 1.1-0.5 1.6-1.6 0.1-0.3 0.1-0.5-0.1-0.1-0.1-0.1-0.4-0.2-0.8-0.4-0.4-0.3-0.1-0.7 0.7-0.3 1.4-0.6 0.2-0.1 0.4 0 0.5 3.1 1 6.1 0.7 2.5 1.6 4.8 1.9 4.5 5.1 8.1 1 1.1 2.1 2 3.3 2.6 7.4 3 0.9-0.1 1.7-0.3 0.1 0.1 0.2 0.1-0.5 0.2-0.9 0.3-0.6 0.3-0.1 0.6 0.5 0 1 0.1 2.4-0.3 4.9-0.9 0.8-0.4 1.5-0.7 1.3-0.4 2.5-0.9 0.4-0.2 0.8-0.2 1.2 0 2.3-0.5 0.9-0.2 1.8-0.4 0.8-0.6 1.7-1.1 1.3 0.1 2.7-0.1 0.6-0.1 1-0.4 0.4-0.2 0.7-0.5 4.6-4.8 6.6-11.1 2.2-7.2 0.9-14.6-0.8-3.6-2.2-7-1.1-2-2.2-3.9-0.5-0.8-1.1-1.4-0.4-0.5-0.7-1-1.5-1.7-3.1-3.1-2.7-2-5.8-3.3-1.9-0.6-3.9-1.1-0.9-0.1-1.8-0.2-1.5-0.4-3-0.9-3.5-0.5-7.1-0.7-0.5 0.1-1.1 0.2zm-1 6.5q3-0.1 5.5 1.6 2.5 1.6 4 4.1 3.5 5.8 4.4 12.6 0.3 3.8-0.1 7.6-0.6 4.4-2.3 8.4-0.6 1.3-1.4 2.5-1.5 2.1-3.7 3.5-4.2 2.3-8.4 0-0.5-0.3-1-0.7 1.2 0.6 2.6 0.9 2.5 0.6 4.8-0.7 0 0-0.1-0.1-2.8 0.9-5.5-0.5-2.6-1.6-4.4-4.2-2.6-4.1-3.4-8.9-1.5-7 0.4-14 1-3.5 3-6.5 1.6-2.3 4-3.5 1-0.3 2-0.6 0.1-0.1 0.2-0.2-0.2-0.2-0.4-0.2-1.9-0.2-3.5 0.6-1.2 0.7-2.4 1.5-0.1-0.1 0-0.3 0.2-0.4 0.6-0.7 2.1-2 5.1-2.2zm0.7 4.5q-0.4 0.4-1 0.7-0.5 0.4-0.7 1.1 1 3.1 2.5 6.1 0.1 0.1 0.3 0.2 0.3-0.2 0.4-0.6 1.3-3.4 2.6-6.8 0-0.2-0.2-0.4-1.4-0.7-3-0.6-0.4 0.1-0.9 0.3zm-4.1 1.9q-2.9 3.3-3.7 7.7-0.9 4.6-0.5 9.2 0.5 5.1 3 9.4 2.1 3.4 5.8 5.1 0.5 0.3 1.1 0.2 0.3-0.1 0-0.3-1.3-0.7-2.5-1.5-2.2-1.6-3.5-4.1-3.2-5.8-3-12.4-0.2-6.3 3-11.7 0.8-1.4 2-2.6 0.5-0.3 0.8-0.7-0.1-0.1-0.3-0.1-1.2 0.7-2.2 1.8zm9.3 0.2q-0.4 3.7-0.7 7.5 0 0.4 0 0.7 0.1 0.4 0.5 0.4 0.6 0 1.2-0.2 1.7-0.6 3.4-1.2 0.3-0.1 0.4-0.3-1.3-4.5-4.7-7.7-0.1 0.4-0.1 0.8zm-10.1 4.9q-0.5 1.2-0.7 2.4 0.2 0.5 0.7 0.6 1 0.4 2 0.6 0.3 0 0.5-0.1 0.1-0.3 0.1-0.7-0.2-2-0.3-4.1-0.2-1.1-0.4-2.2-0.1-0.2-0.3-0.2-0.8 1.9-1.6 3.7zm12.4 7.3q-0.6 0.8-1.1 1.6-0.3 0.8 0.2 1.5 2 2.3 4.1 4.5 0.1-0.2 0.2-0.5 0.7-5.1-0.2-10.1-0.1-0.2-0.2-0.2-1.5 1.6-3 3.2zm-7.3-0.9q-1 0.8-1 2-0.4 2.3 1.3 3.7 0.6 0.4 1.1 0 1.3-1.3 1.1-3.2-0.2-1.6-1.4-2.5-0.4-0.2-0.7-0.2-0.2 0.1-0.4 0.2zm-6.4 0.9q0 2.4 0.2 4.8 0 0.1 0.1 0.2 1.4-1 2.1-2.5 0.1-1-0.5-1.8-0.9-0.9-1.8-1.7-0.1 0.5-0.1 1zm1 8.2q0 0.1-0.1 0.2 0.1 0.3 0.2 0.6 1.1 2.3 2.1 4.7 0.1 0.2 0.3 0.3 0.1 0 0.2-0.1 0.3-2.1 0.5-4.1 0-0.9-0.3-1.7-0.2-0.4-0.6-0.3-1.1 0.2-2.3 0.4zm10-0.1q-0.1 0.7 0 1.4 0.5 3.8 1 7.6 0 0.2 0.2 0.2 3.2-3.1 4.2-7.5 0-0.1-0.1-0.2-1.6-0.6-3.2-1.3-0.9-0.3-1.8-0.5-0.2 0.1-0.3 0.3zm24.1 0.6q0.2 0 0.3 0.1 0.3 0.6 0.5 1.3 0 0.2-0.3 0.1-0.2-0.4-0.7-0.4-0.2 0.1-0.3-0.1 0.2-0.6 0.5-1zm-28 2.3q-0.7 1.9-1.5 3.9-0.2 0.4-0.2 0.8-0.1 0.4 0.1 0.7 1.1 1 2.4 1.6 1.3 0.6 2.6 0.3 0.2 0 0.3-0.2-1.4-3.7-2.9-7.4-0.1-0.3-0.3-0.4-0.4 0.3-0.5 0.7z"/>
	</g>
	<g id="Layer">
		<path id="Layer" fill-rule="evenodd" class="s0" d="m84 4.6q14 0 28.1 0 4.2 0.4 6.1 4.1 0.5 1.2 0.6 2.4 0 9.8 0 19.5-0.5 4.2-4.3 6-1.3 0.6-2.7 0.6-13.8 0-27.6 0-4-0.2-6.1-3.7-0.6-1.2-0.8-2.5 0-10.1 0-20.2 0.6-4.1 4.5-5.7 1.1-0.4 2.2-0.5zm1.1 8.5q-0.1 7.7 0 15.4 0.3 1.3 1.6 1.7 11.4 0 22.9 0 1.3-0.4 1.5-1.6 0.1-7.8 0-15.6-0.3-1.4-1.7-1.6-11.3 0-22.6 0-1.4 0.3-1.7 1.7z"/>
	</g>
	<g id="Layer">
		<path id="Layer" fill-rule="evenodd" class="s0" d="m124.3 4.6q18.4 0 36.8 0 1.2 0.2 1.7 1.3 0.1 2 0 4-0.3 1.2-1.6 1.4-7.1 0.1-14.2 0.1-0.4 0.2-0.6 0.6 0 11.7 0 23.3-0.3 1.2-1.4 1.5-2.3 0.2-4.5 0.1-1.3-0.3-1.6-1.5 0-11.8-0.2-23.5-0.1-0.3-0.5-0.5-6.9 0-13.9-0.1-1.3-0.2-1.7-1.4 0-1.9 0-3.8 0.4-1.3 1.7-1.5z"/>
	</g>
	<g id="Layer">
		<path id="Layer" fill-rule="evenodd" class="s0" d="m172.9 4.6q14.1 0 28.2 0 4.9 0.5 6.4 5.1 0.2 0.7 0.2 1.3 0.1 9.9 0 19.7-0.7 5.2-5.7 6.4-0.6 0.1-1.2 0.1-13.8 0-27.6 0-3.9-0.2-5.9-3.4-0.9-1.4-1-2.9-0.1-10 0-20 0.8-5 5.7-6.2 0.5 0 0.9-0.1zm1.1 8.6q0 7.6 0 15.2 0.3 1.4 1.7 1.8 11.4 0 22.9 0 1.2-0.4 1.5-1.6 0.1-7.8 0-15.6-0.4-1.4-1.8-1.6-11.2 0-22.4 0-1.6 0.2-1.9 1.8z"/>
	</g>
	<g id="Layer">
		<path id="Layer" fill-rule="evenodd" class="s0" d="m215.8 4.6q2.6 0 5.2 0 3.1 0.3 4.8 2.8 6.1 9.7 12.1 19.4 0.5 0.6 0.8 0 6.3-10.1 12.6-20 1.5-1.8 3.8-2.1 2.9-0.2 5.7-0.1 1.5 0.3 1.8 1.7 0.1 14.5 0 29-0.3 1.3-1.6 1.6-2.4 0.1-4.9 0-1.2-0.3-1.6-1.5 0-8.9 0-17.7-0.3-0.5-0.7-0.2-4.5 7.4-9.1 14.8-1.8 3-5.1 4-2.3 0.5-4.3-0.7-2.3-1.4-3.7-3.7-4.3-7-8.6-14-0.2-0.3-0.3-0.5-0.3-0.1-0.5 0.1-0.1 8.8-0.1 17.6-0.2 1.4-1.7 1.8-2.4 0.1-4.8 0-1.3-0.3-1.6-1.7-0.1-14.4 0-28.8 0.3-1.5 1.8-1.8z"/>
	</g>
	<g id="Layer">
		<path id="Layer" fill-rule="evenodd" class="s0" d="m269.7 4.6q17.3 0 34.7 0 1.4 0.2 1.8 1.5 0 1.9 0 3.7-0.4 1.3-1.8 1.5-17.4 0.1-34.8 0-1.4-0.2-1.7-1.6-0.1-1.7 0-3.4 0.3-1.4 1.8-1.7z"/>
	</g>
	<g id="Layer">
		<path id="Layer" fill-rule="evenodd" class="s0" d="m318.5 4.6q14 0 28.1 0 5 0.5 6.5 5.3 0.1 0.6 0.1 1.2-0.2 0.1-0.3 0.2-15.8 0.1-31.5 0.1-1.4 0.2-1.8 1.6-0.1 7.8 0 15.6 0.3 1.2 1.5 1.6 15.8 0 31.6 0 0.4 0.1 0.5 0.4-0.4 4.2-4.2 6-1.3 0.6-2.7 0.6-13.8 0-27.6 0-4.6-0.3-6.5-4.5-0.3-0.8-0.4-1.6-0.1-5.1-0.1-10.2 0-5.1 0.1-10.2 0.7-4 4.3-5.6 1.2-0.4 2.4-0.5z"/>
	</g>
	<g id="Layer">
		<path id="Layer" fill-rule="evenodd" class="s0" d="m361.1 4.6q2.4-0.1 4.8 0.1 1.2 0.3 1.5 1.4 0 4.9 0 9.8 0.2 1.2 1.3 1.5 10.9 0 21.8-0.1 0.9-0.3 1.1-1.3 0.1-4.9 0.1-9.7 0.3-1.5 1.8-1.7 2.2-0.1 4.4 0 1.5 0.2 1.9 1.7 0 14.5 0 29-0.3 1.3-1.6 1.6-2.5 0.1-4.9 0-1.3-0.3-1.6-1.6 0-4.9-0.1-9.8-0.3-1.3-1.6-1.4-10.5 0-21 0-1.3 0.2-1.6 1.5 0 4.9 0 9.8-0.4 1.2-1.6 1.5-2.5 0.1-4.9 0-1.4-0.4-1.6-1.8-0.1-14.3 0-28.7 0.3-1.6 1.8-1.8z"/>
	</g>
	<g id="Layer">
		<path id="Layer" fill-rule="evenodd" class="s1" d="m38.7 4.7q4.8 0.3 8.5 3.2 0.9 0.9 1.8 1.8 2.5 2.8 4.2 6.1 0.7 1.7 1.5 3.3 2.2 6.5 2.3 13.4 0.1 6.5-1.9 12.7-1.2 3.2-3.1 6.2-1.9 2.8-4.7 4.6-1 0.6-2 1.1-1.5 0.5-3.1 0.6-0.2-0.1-0.2-0.2 2.3-1 4.1-2.6 0.5-0.5 0.9-1.1 0-0.1-0.1 0-2.1 1.9-5 2.7-2.8 0.7-5.6-0.4-3.9-1.6-6.5-5-0.8-1-1.5-2.2-2.1-3.8-3.4-7.9-0.5-1.9-1-3.8-1.2-7.1 0.1-14.3 0.5-1.9 0.9-3.9 1.3-4.3 3.9-7.7 1.5-1.8 3.4-3.2 1.1-0.5 2.2-1.1 2.7-0.9 5.6-0.3 2 0.6 3.7 1.6 1.4 1 2.7 2.1 0-0.2-0.1-0.3-3.1-3.8-7.9-4.9-0.1-0.2-0.1-0.3 0.2-0.1 0.4-0.2zm-2.6 6.2q-3 0.2-5.1 2.2-0.4 0.3-0.6 0.7-0.1 0.2 0 0.3 1.2-0.8 2.4-1.5 1.6-0.8 3.5-0.6 0.2 0 0.4 0.2-0.1 0.1-0.2 0.2-1 0.3-2 0.6-2.4 1.2-4 3.5-2 3-3 6.5-1.9 7-0.4 14 0.8 4.8 3.4 8.9 1.8 2.6 4.4 4.2 2.7 1.4 5.5 0.5 0.1 0.1 0.1 0.1-2.3 1.3-4.8 0.7-1.4-0.3-2.6-0.9 0.5 0.4 1 0.7 4.2 2.3 8.4 0 2.2-1.4 3.7-3.5 0.8-1.2 1.4-2.5 1.7-4 2.3-8.4 0.4-3.8 0.1-7.6-0.9-6.8-4.4-12.6-1.5-2.5-4-4.1-2.5-1.7-5.5-1.6zm4.6 4.8q0.2 0.2 0.2 0.4-1.3 3.4-2.6 6.8-0.1 0.4-0.4 0.6-0.2-0.1-0.3-0.2-1.5-3-2.5-6.1 0.2-0.7 0.7-1.1 0.6-0.3 1-0.7 0.5-0.2 0.9-0.3 1.6-0.1 3 0.6zm-5.5-0.1q-0.3 0.4-0.8 0.7-1.2 1.2-2 2.6-3.2 5.4-3 11.7-0.2 6.6 3 12.4 1.3 2.5 3.5 4.1 1.2 0.8 2.5 1.5 0.3 0.2 0 0.3-0.6 0.1-1.1-0.2-3.7-1.7-5.8-5.1-2.5-4.3-3-9.4-0.4-4.6 0.5-9.2 0.8-4.4 3.7-7.7 1-1.1 2.2-1.8 0.2 0 0.3 0.1zm11.6 8.8q-0.1 0.2-0.4 0.3-1.7 0.6-3.4 1.2-0.6 0.2-1.2 0.2-0.4 0-0.5-0.4 0-0.3 0-0.7 0.3-3.8 0.7-7.5 0-0.4 0.1-0.8 3.4 3.2 4.7 7.7zm-13-5.5q0.2 1.1 0.4 2.2 0.1 2.1 0.3 4.1 0 0.4-0.1 0.7-0.2 0.1-0.5 0.1-1-0.2-2-0.6-0.5-0.1-0.7-0.6 0.2-1.2 0.7-2.4 0.8-1.8 1.6-3.7 0.2 0 0.3 0.2zm13.7 7.8q0.9 5 0.2 10.1-0.1 0.3-0.2 0.5-2.1-2.2-4.1-4.5-0.5-0.7-0.2-1.5 0.5-0.8 1.1-1.6 1.5-1.6 3-3.2 0.1 0 0.2 0.2zm-9.4 2.1q1.2 0.9 1.4 2.5 0.2 1.9-1.1 3.2-0.5 0.4-1.1 0-1.7-1.4-1.3-3.7 0-1.2 1-2 0.2-0.1 0.4-0.2 0.3 0 0.7 0.2zm-5.6 1.6q0.6 0.8 0.5 1.8-0.7 1.5-2.1 2.5-0.1-0.1-0.1-0.2-0.2-2.4-0.2-4.8 0-0.5 0.1-1 0.9 0.8 1.8 1.7zm2 7.4q0.3 0.8 0.3 1.7-0.2 2-0.5 4.1-0.1 0.1-0.2 0.1-0.2-0.1-0.3-0.3-1-2.4-2.1-4.7-0.1-0.3-0.2-0.6 0.1-0.1 0.1-0.2 1.2-0.2 2.3-0.4 0.4-0.1 0.6 0.3zm9.2 0.2q1.6 0.7 3.2 1.3 0.1 0.1 0.1 0.2-1 4.4-4.2 7.5-0.2 0-0.2-0.2-0.5-3.8-1-7.6-0.1-0.7 0-1.4 0.1-0.2 0.3-0.3 0.9 0.2 1.8 0.5zm-5.2 2.4q1.5 3.7 2.9 7.4-0.1 0.2-0.3 0.2-1.3 0.3-2.6-0.3-1.3-0.6-2.4-1.6-0.2-0.3-0.1-0.7 0-0.4 0.2-0.8 0.8-2 1.5-3.9 0.1-0.4 0.5-0.7 0.2 0.1 0.3 0.4z"/>
	</g>
	<g id="Layer">
		<path id="Layer" fill-rule="evenodd" class="s2" d="m45.4 5.7q1.4 0 2.6 0.6 0.8 0.7 1.5 1.3 1.1 0.8 2.3 1.6 0.5 0.4 0.9 0.9 0 0.1-0.1 0.2-0.1 0.1-0.3 0.1 1 1.1 2.2 2 0.4 0.3 0.8 0.7 0.2 0.4 0.1 0.9-0.2 0.1-0.3-0.1-0.6-0.4-1.2-0.7-0.1 0-0.3 0.1-0.1 0.3-0.5 0.5-0.1 0-0.2 0-0.9-1.3-1.6-2.6 0-0.3 0.1-0.6 0.3-0.2 0.7-0.3-0.3-0.4-0.8-0.6-0.7 0-1.4 0.1-0.8-0.8-1.5-1.6-0.3-0.4 0-0.7-0.1-0.2-0.4-0.3-1.4-0.3-2.6-1.3 0-0.1 0-0.2z"/>
	</g>
	<g id="Layer">
		<path id="Layer" fill-rule="evenodd" class="s3" d="m50.3 6.7q1.3 0.2 2.4 0.8 0.1 0.1 0.2 0.3-0.5 0.1-1-0.2-0.8-0.3-1.5-0.7-0.1-0.1-0.1-0.2z"/>
	</g>
	<g id="Layer">
		<path id="Layer" fill-rule="evenodd" class="s1" d="m53.6 7.7q1.5 0.3 2.7 1 1.8 1 3.4 2.3 1.3 1.3 2.6 2.6 1.8 2.1 3.1 4.7 0.8 1.9 1.6 3.9 2 5.7 1.9 11.7-0.4 3.7-1.3 7.3-1 3.1-2.6 5.9-1.8 2.4-3.6 4.8-0.7 0.6-1.5 0.8-1.1 0.3-2.1 0.5-0.1-0.1-0.1-0.1 0.4-0.5 0.9-0.9 1.3-0.7 2.5-1.5 0.1-0.2 0.2-0.3-0.1 0-0.2 0-0.4 0.2-0.8 0.4-0.2 0.1-0.4 0.1 0-0.2 0.1-0.3 0.5-1.1 1.3-1.9 0.9-0.4 1.9-0.8 0.3-0.3 0.4-0.7 0-0.1-0.1-0.2-0.4 0.1-0.7 0.3-0.3 0.3-0.6 0.5-0.4 0-0.3-0.4 0.5-1.7 1.9-2.9 0.6-0.4 1.4-0.4 0.1-0.1 0.2-0.2-0.2-0.6-0.6-0.9-0.5 0.5-1.1 0.9-0.2 0.1-0.4 0-0.1-0.3 0-0.6 0.8-1.7 1.7-3.5-0.3-0.2-0.4-0.3-0.3-2.5 1.2-4.5 0.2-0.1 0.3-0.2 0.5 0.3 0.9 0.6 0.1-0.1 0.2-0.2-0.4-0.8-0.7-1.4-0.3-0.2-0.5 0-0.3 0.5-0.7 1-0.4 0.2-0.4-0.2-0.3-1.7 0-3.3 0.3-0.9 0.9-1.5 0.2-0.1 0.5 0.1 0.3 0.2 0.5 0.5 0.2 0.1 0.3 0.1-0.3-1.1-1-1.9-0.2-0.1-0.4 0.1-0.1 0.4-0.3 0.9-0.5-0.3-0.7-0.9-0.4-1-0.2-2.1 0.1-0.8 0.5-1.6 0.2-0.2 0.5-0.1 0.3 0.2 0.5 0.5 0.2 0 0.3 0 0-0.2-0.1-0.4-0.5-0.7-1.1-1.4-0.2-0.2-0.4 0-0.1 0.2-0.2 0.4-0.4 0.5-0.7 0-0.8-1.2-0.6-2.6-0.1-0.7 0.3-1.3 0.3-0.3 0.6-0.1 0.3 0.4 0.6 0.6 0.1 0 0.1-0.2 0-0.2-0.2-0.4-0.7-0.7-1.4-1.4-0.1-0.1-0.2 0.1-0.1 0.3-0.3 0.6-0.3 0.1-0.5-0.1-1.2-1.6-0.7-3.4 0.1-0.1 0.2-0.1 0.5 0.1 0.9 0.4 0.3 0 0.1-0.2-0.8-0.6-1.6-1.2-0.3 0.2-0.6 0.5-0.2 0-0.3-0.1-0.8-0.7-1.3-1.6-0.1-0.3-0.1-0.7 0.1-0.5 0.2-1-0.1-0.1-0.2-0.1-0.4 0.2-0.9 0.1-0.5-0.5-1-0.8-0.9-0.7-0.9-1.8 0-0.1-0.1-0.2-1.2-0.3-2.2-0.7-0.3-0.3-0.1-0.6zm12.1 30.7q-0.3 0.4-0.5 1 0.1 0.2 0.3 0.1 0.5 0 0.7 0.4 0.3 0.1 0.3-0.1-0.2-0.7-0.5-1.3-0.1-0.1-0.3-0.1z"/>
	</g>
	<g id="Layer">
		<path id="Layer" fill-rule="evenodd" class="s2" d="m52.2 8.8q1.4-0.1 2.6 0.5 0.9 0.6 0.6 1.6-0.1 0.1-0.2 0.1-0.2-0.1-0.4-0.2-0.8-0.6-1.7-1.1-0.5-0.4-0.9-0.9z"/>
	</g>
	<g id="Layer">
		<path id="Layer" fill-rule="evenodd" class="s2" d="m54.2 11q0.8 0.3 1.6 0.7 0.4 0.1 0.8-0.2 0.2 0 0.3 0 0.8 0.8 1.3 1.8 0.2 0.7-0.1 1.4-0.2 0.2-0.4 0-1.8-1.7-3.5-3.3-0.1-0.2 0-0.4z"/>
	</g>
	<g id="Layer">
		<path id="Layer" fill-rule="evenodd" class="s0" d="m37.6 13.3q2.6 0.1 4.7 1.8 2.3 2 3.8 4.6 1.4 2.1 1.9 4.6 1.1 4.8 1.1 9.6-0.4 4.5-1.9 8.7-1.3 3.5-4.2 5.9-4.3 3-8.6 0-1.2-0.8-2.1-1.9-3.1-3.9-4.1-8.8-1-4.8-0.7-9.6 0.4-6.7 4.6-11.8 1.7-2 4.1-2.8 0.7-0.2 1.4-0.3zm0.1 1.8q-0.4 0.1-0.9 0.3-0.4 0.4-1 0.7-0.5 0.4-0.7 1.1 1 3.1 2.5 6.1 0.1 0.1 0.3 0.2 0.3-0.2 0.4-0.6 1.3-3.4 2.6-6.8 0-0.2-0.2-0.4-1.4-0.7-3-0.6zm-2.8 0.4q-1.2 0.7-2.2 1.8-2.9 3.3-3.7 7.7-0.9 4.6-0.5 9.2 0.5 5.1 3 9.4 2.1 3.4 5.8 5.1 0.5 0.3 1.1 0.2 0.3-0.1 0-0.3-1.3-0.7-2.5-1.5-2.2-1.6-3.5-4.1-3.2-5.8-3-12.4-0.2-6.3 3-11.7 0.8-1.4 2-2.6 0.5-0.3 0.8-0.7-0.1-0.1-0.3-0.1zm7.2 1.2q-0.1 0.4-0.1 0.8-0.4 3.7-0.7 7.5 0 0.4 0 0.7 0.1 0.4 0.5 0.4 0.6 0 1.2-0.2 1.7-0.6 3.4-1.2 0.3-0.1 0.4-0.3-1.3-4.5-4.7-7.7zm-8.6 2q-0.8 1.9-1.6 3.7-0.5 1.2-0.7 2.4 0.2 0.5 0.7 0.6 1 0.4 2 0.6 0.3 0 0.5-0.1 0.1-0.3 0.1-0.7-0.2-2-0.3-4.1-0.2-1.1-0.4-2.2-0.1-0.2-0.3-0.2zm13.8 7.8q-1.5 1.6-3 3.2-0.6 0.8-1.1 1.6-0.3 0.8 0.2 1.5 2 2.3 4.1 4.5 0.1-0.2 0.2-0.5 0.7-5.1-0.2-10.1-0.1-0.2-0.2-0.2zm-9.9 2.1q-0.2 0.1-0.4 0.2-1 0.8-1 2-0.4 2.3 1.3 3.7 0.6 0.4 1.1 0 1.3-1.3 1.1-3.2-0.2-1.6-1.4-2.5-0.4-0.2-0.7-0.2zm-6.7 0.1q-0.1 0.5-0.1 1 0 2.4 0.2 4.8 0 0.1 0.1 0.2 1.4-1 2.1-2.5 0.1-1-0.5-1.8-0.9-0.9-1.8-1.7zm3.2 8.8q-1.1 0.2-2.3 0.4 0 0.1-0.1 0.2 0.1 0.3 0.2 0.6 1.1 2.3 2.1 4.7 0.1 0.2 0.3 0.3 0.1 0 0.2-0.1 0.3-2.1 0.5-4.1 0-0.9-0.3-1.7-0.2-0.4-0.6-0.3zm8 0q-0.2 0.1-0.3 0.3-0.1 0.7 0 1.4 0.5 3.8 1 7.6 0 0.2 0.2 0.2 3.2-3.1 4.2-7.5 0-0.1-0.1-0.2-1.6-0.6-3.2-1.3-0.9-0.3-1.8-0.5zm-3.7 2.5q-0.4 0.3-0.5 0.7-0.7 1.9-1.5 3.9-0.2 0.4-0.2 0.8-0.1 0.4 0.1 0.7 1.1 1 2.4 1.6 1.3 0.6 2.6 0.3 0.2 0 0.3-0.2-1.4-3.7-2.9-7.4-0.1-0.3-0.3-0.4z"/>
	</g>
	<g id="Layer">
		<path id="Layer" fill-rule="evenodd" class="s1" d="m54.2 14.1q0.5 0 1 0.3 1.8 1.3 2.4 3.4-0.1 0.2-0.1 0.4-0.5-0.1-0.9-0.5-0.2-0.2-0.4-0.3-0.5 0.3-0.8 0.7-0.2 0.1-0.4-0.2-0.6-1.1-1.1-2.2-0.2-0.5 0-1.1 0-0.3 0.3-0.5z"/>
	</g>
	<g id="Layer">
		<path id="Layer" fill-rule="evenodd" class="s1" d="m56.9 14.9q0.5 0 1 0.2 0.2 0.3 0.5 0.5 0.3-0.1 0.5-0.4 0.2-0.1 0.5 0 0.9 0.9 1.2 2.1 0.2 1-0.4 1.6-0.3 0-0.4-0.1-2.2-1.4-2.9-3.9z"/>
	</g>
	<g id="Layer">
		<path id="Layer" fill-rule="evenodd" class="s0" d="m269.6 17.4q17.4 0 34.8 0 1.3 0.2 1.7 1.3 0.1 2 0.1 3.9-0.4 1.4-1.8 1.5-17.4 0.1-34.7 0-1.5-0.2-1.8-1.6-0.1-1.7 0-3.4 0.3-1.4 1.7-1.7z"/>
	</g>
	<g id="Layer">
		<path id="Layer" fill-rule="evenodd" class="s1" d="m56.4 18.8q1.7 0.4 2.4 2 0.5 1.2 0.6 2.4 0 0.5-0.5 0.3-0.4-0.5-0.9-0.8-0.1 0-0.3 0.1-0.2 0.4-0.5 0.9-0.2 0.1-0.4 0-0.4-0.9-0.6-1.8-0.5-1.4 0-2.8 0.1-0.1 0.2-0.3z"/>
	</g>
	<g id="Layer">
		<path id="Layer" fill-rule="evenodd" class="s1" d="m59.3 19.3q0.2 0.1 0.4 0.2 0.4 0.5 0.9 0.8 0.2 0 0.2-0.1 0.2-0.3 0.3-0.6 0.2-0.1 0.4 0.1 0.4 0.3 0.6 0.8 0.5 1.7-0.1 3.3-0.3 0.4-0.7 0.1-1-0.9-1.5-2.1-0.4-1.1-0.6-2.3 0-0.1 0.1-0.2z"/>
	</g>
	<g id="Layer">
		<path id="Layer" fill-rule="evenodd" class="s1" d="m58.1 24.1q0.3-0.1 0.6 0 0.7 0.7 1.2 1.4 0.7 1.6 0.8 3.4 0 0.3-0.1 0.6-0.3-0.1-0.4-0.2-0.4-0.4-0.8-0.8-0.3-0.4-0.6-0.1-0.3 0.6-0.9 0.9-0.1 0-0.2-0.1-0.5-1.6-0.3-3.3 0.1-1 0.7-1.8z"/>
	</g>
	<g id="Layer">
		<path id="Layer" fill-rule="evenodd" class="s1" d="m60.9 24.6q0.2 0 0.3 0.1 0.3 0.3 0.6 0.6 0.3 0.1 0.5-0.1 0.1-0.3 0.3-0.5 0.2-0.1 0.4 0 0.9 1.3 0.6 2.9-0.2 1-0.8 1.8-0.4 0-0.7-0.3-1.1-1-1.2-2.5-0.2-0.8-0.2-1.7 0.1-0.2 0.2-0.3z"/>
	</g>
	<g id="Layer">
		<path id="Layer" fill-rule="evenodd" class="s1" d="m61.6 29.6q0.5 0.5 0.9 1 0.3 0.3 0.5 0 0.3-0.5 0.7-0.9 0.1 0.2 0.2 0.5 0.1 0.4 0.2 0.8 0.6 2.2-1.1 3.7-0.2 0.2-0.4 0-0.8-0.6-1.1-1.6-0.3-1.6-0.1-3.3 0-0.2 0.2-0.2z"/>
	</g>
	<g id="Layer">
		<path id="Layer" fill-rule="evenodd" class="s1" d="m59.1 29.6q0.2 0 0.3 0.1 1 0.6 1.3 1.8 0.5 1.6 0.1 3.3-0.2 0.3-0.4 0-0.3-0.5-0.7-0.8-0.2-0.2-0.5 0-0.4 0.4-0.7 0.9-0.3 0.2-0.5 0.1-0.3-1.8 0-3.5 0.3-1.1 1.1-1.9z"/>
	</g>
	<g id="Layer">
		<path id="Layer" fill-rule="evenodd" class="s0" d="m269.5 30.4q17.5 0 35 0 1.2 0.2 1.6 1.4 0.1 1.9 0.1 3.8-0.5 1.4-1.9 1.6-17.5 0.1-34.9-0.1-1.1-0.3-1.5-1.4-0.1-1.8 0-3.6 0.3-1.4 1.6-1.7z"/>
	</g>
	<g id="Layer">
		<path id="Layer" fill-rule="evenodd" class="s1" d="m63.7 34.8q0.8 1.2 0.3 2.6-0.4 1.3-1.5 2.2-0.2 0-0.4 0-0.6-0.5-0.7-1.3-0.3-1.1-0.1-2.2 0.3-1.7 1.2-0.2 0.1 0.1 0.2 0.1 0.6-0.5 1-1.2z"/>
	</g>
	<g id="Layer">
		<path id="Layer" fill-rule="evenodd" class="s1" d="m59.4 35.2q0.4 0.1 0.7 0.5 0.7 0.9 0.7 2.1 0 0.9-0.3 1.9-0.2 0.3-0.5 0.3-0.4-0.3-0.8-0.7 0-0.1-0.1-0.1-0.3 0.1-0.5 0.4-0.3 0.4-0.7 0.7-0.4 0.1-0.4-0.3-0.2-2.7 1.6-4.7 0.2 0 0.3-0.1z"/>
	</g>
	<g id="Layer">
		<path id="Layer" fill-rule="evenodd" class="s1" d="m63.3 39.7q0 0 0.1 0.1 0.3 2.9-2.2 4.5-0.1 0-0.3 0-0.5-0.8-0.6-1.7 0.2-1.3 0.6-2.6 0.1-0.1 0.3 0 0.2 0.3 0.5 0.6 0.1 0.2 0.4 0.3 0.5-0.2 0.7-0.7 0.2-0.3 0.5-0.5z"/>
	</g>
	<g id="Layer">
		<path id="Layer" fill-rule="evenodd" class="s1" d="m58.7 40.6q0.3-0.1 0.5 0.1 0.7 0.6 0.7 1.6 0 1.4-0.9 2.5-0.4-0.3-0.8-0.6-0.3-0.2-0.5 0.1-0.6 0.6-1.3 1-0.3-0.2-0.2-0.5 0.3-1.9 1.5-3.4 0.4-0.5 1-0.8z"/>
	</g>
	<g id="Layer">
		<path id="Layer" fill-rule="evenodd" class="s1" d="m62.1 44.2q0.2 0.1 0.1 0.3-0.1 1.2-0.8 2.2-0.7 1-1.9 1.5-0.7-0.4-0.8-1.2 0.1-0.4 0.2-0.8 0.5-0.8 1-1.5 0.1-0.1 0.2 0 0.2 0.2 0.4 0.5 0.1 0.1 0.3 0 0.7-0.4 1.3-1z"/>
	</g>
	<g id="Layer">
		<path id="Layer" fill-rule="evenodd" class="s1" d="m119.4 44.3q2.2-0.1 4.1 1.1 1.3 1.1 1.8 2.7 1.1 3.3-0.1 6.6-0.9 2.4-3.3 3.1-1.5 0.4-2.9 0.4-4.5-0.6-5.2-5-0.3-2.1 0.1-4.3 1-4.4 5.5-4.6zm-1.6 3.2q-0.9 1-1.1 2.5 0 1.2 0 2.4 0.1 0.8 0.4 1.5 0.4 1 1.4 1.5 2.6 0.9 3.8-1.5 1-2.6 0-5.3-0.8-2.1-3-1.8-0.8 0.2-1.5 0.7z"/>
	</g>
	<g id="Layer">
		<path id="Layer" fill-rule="evenodd" class="s1" d="m150.8 44.3q5.8-0.1 6.4 5.7 0.4 2.9-0.8 5.5-0.8 1.1-1.9 1.9-1 0.6-2.2 0.7-1.2 0-2.3 0-3.8-0.8-4.6-4.5-0.7-3.1 0.5-6.1 1-2.3 3.4-2.9 0.8-0.2 1.5-0.3zm-2.3 4.4q-0.3 1.1-0.3 2.3 0.1 1 0.1 1.9 0.1 0.4 0.2 0.8 0.5 1.1 1.4 1.7 1.1 0.4 2.3 0.1 1.2-0.3 1.6-1.6 0.7-1.6 0.5-3.4-0.1-1.4-0.8-2.6-1.1-1.4-3-1.1-1.4 0.4-2 1.9z"/>
	</g>
	<g id="Layer">
		<path id="Layer" fill-rule="evenodd" class="s1" d="m252.9 44.3q0.8 0 1.6 0.3 0.7 0.2 1.4 0.4 0.4 0.2 0.3 0.7-0.3 0.8-0.7 1.6-0.1 0.1-0.3 0.1-1-0.2-2.1-0.5-1.7-0.5-2.1 1.2 0.1 0.8 0.7 1.2 1.6 0.9 3.1 1.9 2.1 1.6 1.4 4.1-0.5 1.8-2.2 2.5-2.9 0.8-5.6-0.3-0.5-0.4-0.4-1 0-0.7 0.1-1.4 0-0.4 0.4-0.3 1.5 0.8 3.2 0.9 1.6 0.2 1.8-1.4-0.1-0.7-0.6-1.1-1.5-0.9-3-1.8-2.1-1.7-1.5-4.4 0.6-2.1 2.8-2.5 0.8-0.1 1.7-0.2z"/>
	</g>
	<g id="Layer">
		<path id="Layer" fill-rule="evenodd" class="s1" d="m299.8 44.3q2.1 0 4 0.9 0.2 0.1 0.2 0.3-0.3 0.9-0.7 1.9-0.3 0.1-0.7 0.1-1-0.4-2.1-0.7-2.5-0.2-3.4 2.2-0.2 0.6-0.3 1.3 0 1.3 0 2.5 0.9 3.7 4.6 2.8 1-0.2 1.9-0.6 0.1 0.2 0.2 0.5 0.1 0.8 0.1 1.7-0.1 0.2-0.3 0.4-3 1-6.1 0.1-2.4-1-3-3.5-1.1-3.6 0.5-7 1.1-2 3.3-2.6 0.9-0.1 1.8-0.3z"/>
	</g>
	<g id="Layer">
		<path id="Layer" fill-rule="evenodd" class="s1" d="m311.6 44.3q2 0.1 3.8 0.8 0.4 0.4 0.2 0.9-0.4 0.6-0.7 1.3 0 0.1-0.1 0.2-0.3 0-0.6 0-1.6-0.9-3.4-0.6-1.3 0.4-1.8 1.6-1.3 3.1 0.2 6.1 1 1.2 2.6 1.1 0.6 0 1.2-0.1 0.9-0.2 1.8-0.5 0.2 0 0.3 0.1 0.2 1.1 0 2.2-0.1 0.1-0.2 0.2-2.3 0.7-4.6 0.5-3.7-0.7-4.6-4.3-0.9-3.4 0.6-6.5 1.4-2.2 3.9-2.8 0.7-0.1 1.4-0.2z"/>
	</g>
	<g id="Layer">
		<path id="Layer" fill-rule="evenodd" class="s1" d="m342.3 44.3q1.6 0.1 3.1 0.7 0.5 0.2 0.4 0.7-0.3 0.9-0.8 1.6-0.3 0.2-0.5 0.1-0.8-0.4-1.7-0.6-0.7 0-1.4 0.1-0.4 0.2-0.6 0.6-0.1 0.6 0 1.2 0.2 0.3 0.4 0.5 1.7 0.9 3.2 2 1.6 1.1 1.6 3.1-0.1 2.4-2.2 3.4-0.6 0.3-1.2 0.4-2.3 0.3-4.5-0.5-0.2-0.1-0.3-0.2-0.1-0.7 0-1.4 0-0.7 0-1.3 1.3 0.7 2.8 1 0.7 0 1.5 0 0.8-0.2 0.9-1.1 0.2-0.9-0.6-1.4-1.3-0.9-2.7-1.7-2.3-1.6-1.8-4.2 0.6-2.3 2.9-2.8 0.8-0.1 1.5-0.2z"/>
	</g>
	<g id="Layer">
		<path id="Layer" fill-rule="evenodd" class="s1" d="m353 44.3q1.8-0.1 3.5 0.5 2 0.8 2.8 2.8 1.4 3.7 0 7.4-1.1 2.4-3.8 3-1.4 0.1-2.8 0.1-3.8-0.7-4.6-4.4-0.6-2.7 0-5.3 1.1-3.6 4.9-4.1zm-0.5 2.8q-1.4 1-1.6 2.7-0.2 1.8 0.2 3.6 0.3 1.7 2 2.2 2.4 0.5 3.4-1.7 0.9-2.7-0.1-5.5-0.9-2-3.3-1.6-0.3 0.1-0.6 0.3z"/>
	</g>
	<g id="Layer">
		<path id="Layer" fill-rule="evenodd" class="s1" d="m132 44.4q0.3 0 0.4 0.2 1.5 4.7 2.7 9.5 0.1 0.2 0.3 0.4 1.3-4.1 2.6-8.1 0.2-0.9 0.6-1.7 0.2-0.1 0.5-0.2 1.4 0 2.8-0.1 0.3 0 0.5 0.3 0.1 0.3 0.1 0.6-0.2 2.4 0 4.7-0.1 3.9-0.1 7.7-0.2 0.4-0.6 0.3-0.4 0-0.8-0.1-0.5 0.1-1 0.1-0.3-0.2-0.3-0.5-0.1-4.7 0.1-9.3-0.3 0-0.3 0.2-0.6 2.2-1.3 4.3-0.7 2.5-1.4 4.9-0.3 0.4-0.8 0.4-0.9 0-1.8-0.1-0.2-0.1-0.4-0.3-1.1-4.1-2.2-8.3-0.2-0.5-0.5-1 0 0.4-0.1 0.9 0.2 2.3 0.1 4.6 0 1.9 0 3.8-0.1 0.2-0.2 0.4-1.1 0-2.1-0.1-0.3-0.1-0.3-0.3-0.1-6.4 0.1-12.8 0-0.2 0.2-0.3 1.5 0 3.1 0 0.1 0 0.1-0.1z"/>
	</g>
	<g id="Layer">
		<path id="Layer" fill-rule="evenodd" class="s1" d="m158.6 44.4q0.3 0 0.6 0.1 3.9 0 7.8 0 0.6-0.3 0.8 0.3 0.2 0.9 0 1.8-0.2 0.4-0.7 0.4-1.2 0-2.3 0-0.3 0.1-0.3 0.4 0 5.1-0.1 10.3 0 0.2-0.2 0.3-1.1-0.1-2.1 0-0.6 0-0.6-0.6 0-0.4 0-0.8 0.1-4.3 0-8.6 0-0.4-0.1-0.9 0 0-0.1-0.1-0.8 0-1.6 0-0.7 0-1.4-0.1-0.1-0.1-0.1-0.1-0.1-1 0-2 0.2-0.3 0.4-0.4z"/>
	</g>
	<g id="Layer">
		<path id="Layer" fill-rule="evenodd" class="s1" d="m176 44.4q1.1 0.1 2.2 0.1 0.3 0.1 0.4 0.3 1.4 4.7 2.5 9.5 0.2 0.6 0.4 0 0.3-1.4 0.7-2.8 0.9-3.2 1.8-6.4 0.1-0.5 0.5-0.6 1 0 2-0.1 0.6 0.1 0.4 0.7-2 6.3-3.9 12.5-0.1 0.2-0.3 0.3-1.4 0.1-2.8 0-0.2-0.1-0.4-0.4-1.7-6-3.8-12-0.1-0.4-0.1-0.8 0.1-0.2 0.4-0.3z"/>
	</g>
	<g id="Layer">
		<path id="Layer" fill-rule="evenodd" class="s1" d="m237.6 44.4q0.3 0 0.5 0.1 4.3 0 8.7 0 0.2 0.1 0.3 0.2 0.1 0.8 0 1.7 0 0.6-0.6 0.6-1.2-0.1-2.4-0.1-0.2 0.1-0.3 0.3-0.1 5.3-0.1 10.6-0.1 0-0.1 0.1-0.2 0-0.3 0.1-1-0.1-2 0-0.3 0-0.5-0.2 0-5.2 0-10.4-0.1-0.3-0.3-0.4-0.8 0-1.6 0-0.6 0-1.3-0.1-0.1-0.1-0.2-0.2-0.1-1 0-2 0.1-0.2 0.2-0.3z"/>
	</g>
	<g id="Layer">
		<path id="Layer" fill-rule="evenodd" class="s1" d="m266.9 44.4q0.9 0 1.8 0 3.5 0.8 2.5 4.3-0.7 1.2-1.9 1.9-0.4 0.3-0.1 0.7 0.9 0.9 1.8 1.8 0.1 0.1 0.3 0 0.3-1 0.8-2.1 0.1-0.1 0.3-0.2 1.2-0.2 2.3 0 0.5 0.3 0.2 0.7-0.6 2-1.7 3.7 0 0.2 0.1 0.3 1.1 1 2.1 2.1 0.1 0.1 0 0.2-1.6 0.1-3.1 0.2-0.6-0.4-1.2-0.9-1.2 0.8-2.5 1-1.8 0.1-3.5-0.4-3.1-1.5-2.1-4.8 0.5-1.4 1.8-2.1 0.4-0.3 0.1-0.7-1-1-1-2.5-0.1-1.7 1.3-2.6 0.8-0.5 1.7-0.6zm0 2.5q-0.6 1 0.1 1.9 0.1 0.3 0.4 0.4 0.9-0.3 1.3-1.1 0.3-1.5-1.3-1.5-0.3 0.1-0.5 0.3zm-0.9 6.3q-0.2 0.4-0.2 0.8 0.3 1.8 2.2 1.7 0.8 0.1 1.4-0.5-1.2-1.4-2.5-2.7-0.1-0.1-0.3-0.1-0.3 0.4-0.6 0.8z"/>
	</g>
	<g id="Layer">
		<path id="Layer" fill-rule="evenodd" class="s1" d="m287.8 44.4q0.7 0 0.9 0.7 1.2 3.5 2.3 7 0.9 2.6 1.7 5.2 0.2 0.7-0.6 0.7-1-0.1-2.1-0.2-0.2-0.2-0.3-0.5-0.2-1.2-0.6-2.2-0.3-0.3-0.6-0.3-1.8 0.1-3.6 0-0.4-0.1-0.6 0.3-0.3 1-0.5 2.2-0.1 0.3-0.3 0.5-0.9 0.2-1.8 0.2-0.5 0-1-0.1-0.1-0.2 0-0.5 2.1-6.3 4.1-12.7 0.1-0.1 0.3-0.2 1.4 0.1 2.7-0.1zm-1.3 3q-0.6 2.2-1.2 4.5-0.1 0.2 0 0.4 0.1 0 0.1 0 1.4 0.1 2.7 0 0.1-0.1 0.2-0.2-0.8-2.4-1.4-4.7 0-0.2-0.2-0.3-0.1 0.1-0.2 0.3z"/>
	</g>
	<g id="Layer">
		<path id="Layer" fill-rule="evenodd" class="s1" d="m331.3 44.4q1.4 0 2.8 0.1 0.8 0.2 1.6 0.6 0.3 0.4 0.1 0.9-0.3 0.6-0.6 1.3-0.2 0.2-0.6 0.1-1.4-0.8-3.1-0.5-1 0.8-0.5 1.9 0.2 0.3 0.5 0.6 1.2 0.7 2.5 1.4 2.9 1.8 1.7 5.1-0.6 1.6-2.4 2-2.6 0.6-5.2-0.3-0.2-0.3-0.3-0.6-0.2-1.1 0-2.2 0.2-0.1 0.3 0 1.2 0.4 2.4 0.8 1.1 0.3 2.2-0.1 1.1-1.2-0.1-2.3-1.7-1-3.3-2.1-1.7-1.5-1.2-3.8 0.6-2.6 3.2-2.9z"/>
	</g>
	<g id="Layer">
		<path id="Layer" fill-rule="evenodd" class="s1" d="m378.9 44.4q0.4-0.1 0.7 0.2 0.1 0.1 0.1 0.3 0.1 0.6 0 1.1-0.1 0.2-0.3 0.3-0.6 0.2-1.1 0.7-0.1 0.2-0.2 0.4 0 3.7-0.1 7.4 0 0.6 0.5 0.9 1.6 0.4 1.1 2.1-0.2 0.2-0.6 0.2-2.3-0.1-4.6 0-0.5 0-0.9-0.3-0.1-0.7 0.1-1.4 0.1-0.1 0.1-0.1 0.6-0.3 1.2-0.5 0.1-0.2 0.2-0.4 0-4.1 0-8.2-0.1-0.2-0.3-0.3-0.6-0.2-1.2-0.7-0.2-0.7-0.1-1.4 0.1-0.1 0.3-0.2 2.6 0.1 5.1-0.1z"/>
	</g>
	<g id="Layer">
		<path id="Layer" fill-rule="evenodd" class="s1" d="m400 53.5q0 0.6 0 1.3-0.4 2.4-2.9 3.1-2.6 0.7-5.2-0.4-0.4-0.4-0.3-1 0-0.9 0.2-1.8 1 0.5 2.2 0.8 1 0.3 2.1 0.2 1.5-0.7 0.7-2.1-0.3-0.4-0.7-0.7-1.1-0.7-2.4-1.3-2.7-1.9-1.6-5 0.6-1.4 2-1.9 0.5-0.2 1-0.3 2.3-0.2 4.4 0.6 0.5 0.3 0.2 0.9-0.2 0.4-0.4 0.9-0.1 0.5-0.6 0.7-0.8-0.4-1.6-0.6-1.1-0.3-2 0.3-0.7 0.6-0.3 1.4 0.2 0.4 0.5 0.7 1.6 0.9 3.1 1.9 1.3 0.9 1.6 2.3z"/>
	</g>
	<g id="Layer">
		<path id="Layer" fill-rule="evenodd" class="s1" d="m83.7 44.5q0.5-0.1 1.1 0 0.2 0.1 0.3 0.3 2.2 6.4 4.3 12.8-0.1 0.3-0.3 0.4-1 0-1.9 0-0.6 0-0.8-0.5-0.4-1.2-0.8-2.5-0.2-0.2-0.6-0.2-1.9 0.1-3.8 0.1-0.1 0.1-0.3 0.2-0.3 1.2-0.6 2.4-0.2 0.5-0.8 0.5-1 0-2-0.1-0.1 0-0.2-0.1 0-0.2 0-0.5 2.1-6.3 4.1-12.6 0.2-0.1 0.4-0.2 0.9 0 1.9 0zm-1.8 7.2q-0.1 0.2-0.1 0.5 0.1 0.1 0.2 0.1 1.3 0 2.7 0 0.1 0 0.1-0.1-0.7-2.4-1.3-4.8-0.1-0.3-0.3-0.4-0.6 2.4-1.3 4.7z"/>
	</g>
	<g id="Layer">
		<path id="Layer" fill-rule="evenodd" class="s1" d="m91.9 44.5q0.7-0.1 1.5 0 0.2 0.1 0.3 0.3 0.1 4.6 0.1 9.2 0.4 1.6 2.1 1.7 1.7 0 2.2-1.6 0.2-1.3 0.3-2.6 0-3.1-0.1-6.2-0.2-0.8 0.6-0.8 0.8 0.1 1.6 0 0.8 0 0.7 0.8 0 4.6-0.1 9.3-0.6 2.4-2.9 3.2-1.8 0.4-3.7 0.2-3.2-0.8-3.6-4.1-0.2-4.5 0-9.1 0.1-0.2 0.2-0.3 0.4 0 0.8 0z"/>
	</g>
	<g id="Layer">
		<path id="Layer" fill-rule="evenodd" class="s1" d="m103.3 44.5q4.6 0 9.3 0 0.1 0.1 0.2 0.3 0 0.9 0 1.9-0.1 0.1-0.2 0.2-0.5 0.1-1 0.1-0.9-0.1-1.8-0.1-0.3 0.2-0.4 0.5 0 5.1 0 10.3 0 0.1-0.2 0.1-1 0.1-2 0.2-0.7 0-0.7-0.7 0.1-4.9 0-9.9-0.1-0.5-0.5-0.4-1.2-0.1-2.3 0-0.5 0.1-0.6-0.4 0-0.9 0-1.7 0-0.3 0.2-0.4z"/>
	</g>
	<g id="Layer">
		<path id="Layer" fill-rule="evenodd" class="s1" d="m169.1 44.5q2.8-0.1 5.6 0 0.2 0.1 0.2 0.3 0.1 0.5 0 1.1 0 0.3-0.2 0.4-0.6 0.3-1.1 0.5-0.1 0.2-0.2 0.3 0 3.8 0 7.5-0.3 0.7 0.2 1.1 0.5 0.2 1 0.5 0.5 0.3 0.4 0.9 0.1 0.4-0.1 0.7-3 0.2-5.9 0.1-0.2-0.1-0.3-0.2-0.1-0.7 0.1-1.3 0.2-0.2 0.3-0.3 0.5-0.2 1-0.4 0.2-0.2 0.3-0.4 0-3.9 0-7.7 0-0.5-0.4-0.9-1.8-0.4-1.2-2.1 0.2-0.1 0.3-0.1z"/>
	</g>
	<g id="Layer">
		<path id="Layer" fill-rule="evenodd" class="s1" d="m189 44.5q3.6 0 7.3 0 0.1 0.1 0.2 0.2 0.2 0.9 0 1.9 0 0.1-0.1 0.2-2.3 0.1-4.6 0.1-0.1 0.1-0.1 0.3-0.1 1.2-0.1 2.3 0.2 0.2 0.4 0.3 2 0 4 0 0.1 0 0.2 0.1 0.1 0.9 0 1.9-0.1 0.3-0.4 0.4-1.8 0-3.6-0.1-0.3 0.1-0.5 0.2-0.1 1.2-0.1 2.3 0 0.3 0 0.6 0.1 0.2 0.3 0.3 1.8 0.1 3.7 0 0.4 0 0.8 0.1 0.1 0.1 0.1 0.3 0.2 0.9 0 1.8-0.1 0.3-0.5 0.3-0.3 0-0.6 0-3.2-0.1-6.3 0-0.6-0.2-0.5-0.7 0.1-6.2 0.1-12.3 0-0.4 0.3-0.5z"/>
	</g>
	<g id="Layer">
		<path id="Layer" fill-rule="evenodd" class="s1" d="m204.4 44.5q2-0.1 3.9 0 1.3 0.3 2.6 0.5 1.1 0.6 1.7 1.6 0.9 2.3-0.1 4.4-1.3 1.9-3.5 2.1-0.8 0.1-1.6 0.1-0.1 0.1-0.2 0.2-0.1 2.1-0.1 4.2-0.1 0.3-0.5 0.4-1 0-2.1 0-0.2-0.1-0.3-0.3 0-5.8 0-11.7 0-0.5-0.1-0.9 0.1-0.4 0.3-0.6zm2.7 3q0 1.4 0 2.8 0.1 0.3 0.3 0.5 1.1 0.2 1.9-0.4 0.9-1 0.7-2.2-0.2-0.5-0.6-0.8-0.9-0.5-1.9-0.5-0.4 0.2-0.4 0.6z"/>
	</g>
	<g id="Layer">
		<path id="Layer" fill-rule="evenodd" class="s1" d="m219 44.5q0.9-0.1 1.7 0 0.2 0.1 0.4 0.4 2 6.2 4.1 12.4 0.1 0.2 0 0.5-0.1 0.1-0.2 0.1-1.1 0.1-2.2 0.1-0.5-0.3-0.6-0.7-0.4-1.1-0.7-2.2 0-0.1-0.1-0.2-2 0-4-0.1-0.5-0.1-0.6 0.4-0.3 1.2-0.6 2.3-0.3 0.5-0.8 0.5-0.9 0-1.9 0-0.2 0-0.3-0.2-0.1-0.3 0-0.6 0.3-0.8 0.5-1.6 1.9-5.3 3.6-10.6 0.1-0.4 0.4-0.5 0.7 0 1.3 0zm-1.3 7.5q0 0.2 0.3 0.3 1.3 0 2.6 0 0.2 0 0.2-0.2-0.7-2.5-1.5-5.1-0.1 0-0.2 0-0.6 2.5-1.4 5z"/>
	</g>
	<g id="Layer">
		<path id="Layer" fill-rule="evenodd" class="s1" d="m227.2 44.5q2 0 4 0 1 0.1 2.1 0.3 2 0.7 2.4 2.8 0.5 2.3-1.1 3.9-0.3 0.2-0.7 0.4-0.1 0.1-0.2 0.3 1.6 2.7 3.3 5.2 0.1 0.3 0 0.5-0.3 0.1-0.6 0.1-0.8 0.1-1.6 0-1 0-1.3-0.9-1.1-2-2.2-3.9-0.5-0.6-1.2-0.2-0.1 0-0.2 0.2 0 2.3 0 4.6-0.1 0.1-0.2 0.1-1 0-2 0.1-0.3 0-0.6-0.2-0.1-6.4 0-12.8 0-0.3 0.1-0.5zm2.6 3.2q0.3 1 0.1 2.1 0 0.3 0.1 0.4 1.1 0.5 2.2-0.1 1.4-1.4 0-2.8-0.9-0.5-1.9-0.4-0.4 0.2-0.5 0.8z"/>
	</g>
	<g id="Layer">
		<path id="Layer" fill-rule="evenodd" class="s1" d="m318.4 44.5q3.6 0 7.3 0 0.1 0 0.1 0.1 0.1 0.8 0.2 1.6 0 0.6-0.5 0.7-2.2 0-4.3 0-0.2 0.1-0.2 0.2-0.1 1.2 0 2.4 0 0.1 0.1 0.2 2.1 0.1 4.2 0.1 0.1 0 0.2 0.2 0.1 0.9 0.1 1.9-0.1 0.1-0.2 0.2-1 0.1-2 0.1-1 0-2-0.1-0.2 0.1-0.4 0.2-0.1 1.5 0 3 0 0.2 0.2 0.2 2.3 0 4.6 0.1 0 0 0 0.1 0.1 0.8 0.2 1.6 0 0.5-0.4 0.7-3.7-0.1-7.4-0.1-0.1 0-0.2-0.1-0.1-6.5 0-13 0.1-0.3 0.4-0.3z"/>
	</g>
	<g id="Layer">
		<path id="Layer" fill-rule="evenodd" class="s1" d="m362.9 44.5q2.1 0 4.2 0 1.8 0.1 3.3 1.1 0.9 0.9 1 2.2 0.5 1.8-0.8 3.2-0.5 0.6-1.1 1 0 0.1-0.1 0.2 1.2 2 2.3 3.9 0.5 0.8 1.1 1.5 0 0.1 0 0.3-1.6 0.2-3.2-0.1-0.4-0.7-0.8-1.4-0.9-1.6-1.8-3.1-0.5-0.7-1.2-0.3-0.2 0.1-0.2 0.3-0.1 2.2 0.1 4.4-0.3 0.2-0.6 0.2-1.1 0.1-2.2 0-0.1 0-0.2-0.1-0.2-6.5-0.1-13 0.1-0.2 0.3-0.3zm2.7 2.8q0 1.4 0 2.8 0.1 0.2 0.3 0.3 0.3 0 0.7 0.1 2.2-0.2 1.8-2.4 0-0.5-0.4-0.8-1.1-0.3-2.2-0.4-0.1 0.2-0.2 0.4z"/>
	</g>
	<g id="Layer">
		<path id="Layer" fill-rule="evenodd" class="s1" d="m382.2 44.5q3.6 0 7.3 0 0.2 0.1 0.3 0.4 0.1 0.8 0 1.6 0 0.4-0.4 0.4-2.2 0-4.3 0-0.2 0.1-0.2 0.2-0.1 1.2-0.1 2.3 0.1 0.2 0.2 0.3 0.3 0.1 0.7 0.1 1.7-0.1 3.5 0 0.1 0.1 0.2 0.3 0 0.7 0.1 1.4 0 0.6-0.6 0.7-1.9 0-3.9 0.1-0.1 0.1-0.2 0.2 0 1.4 0 2.8 0.4 0.3 0.9 0.3 1.4-0.1 2.8-0.1 1.7-0.4 1.3 1.3 0 0.4 0 0.8 0 0.2-0.1 0.2-1.9 0.1-3.8 0.1-1.9 0-3.7 0-0.1 0-0.2-0.1-0.1-6.5 0-13.1 0-0.1 0.2-0.2z"/>
	</g>
	<g id="Layer">
		<path id="Layer" fill-rule="evenodd" class="s1" d="m57.3 45q0.1-0.1 0.2 0 0.4 0.5 0.8 1 0.1 0.8-0.2 1.5-0.4 0.5-0.6 1-0.3 0.2-0.6 0.1-0.2-0.1-0.4-0.2-0.2-0.1-0.4 0-0.6 0.2-1 0.6-0.4 0.3-0.7-0.1 1.4-2 2.9-3.9z"/>
	</g>
	<g id="Layer">
		<path id="Layer" fill-rule="evenodd" class="s2" d="m60.2 48.3q0.2 0 0.3 0.1-0.3 1.1-1.2 1.9-0.8 0.6-1.7 1.1-1.1 0.1-0.8-0.9 0.5-0.9 1.1-1.8 0.2 0 0.3 0 0.4 0 0.7 0.3 0.2 0 0.4 0 0.4-0.4 0.9-0.7z"/>
	</g>
	<g id="Layer">
		<path id="Layer" fill-rule="evenodd" class="s2" d="m55.4 49.2q0.8 0 0.9 0.9 0 0.3-0.1 0.5-0.4 0.6-0.7 1.2-0.2 0.2-0.4 0.2-0.6 0-1.1 0.1-0.8 0.2-1.5 0.5-0.3 0-0.5-0.1 1.6-1.8 3.4-3.3z"/>
	</g>
	<g id="Layer">
		<path id="Layer" fill-rule="evenodd" class="s2" d="m57.9 51.8q0.7-0.1 0.3 0.4-1.6 1.1-3.3 1.9-0.3-0.1-0.2-0.4 0.2-0.5 0.5-1 0.2-0.1 0.4-0.1 1.3-0.1 2.3-0.8z"/>
	</g>
	<g id="Layer">
		<path id="Layer" fill-rule="evenodd" class="s2" d="m53.5 52.5q0.4 0 0.7 0.1 0.1 0.3 0 0.6-0.6 1-1.7 1.4-0.8 0.2-1.7 0.3-0.4 0.1-0.8 0.4-0.3 0-0.6 0.1-0.1-0.1 0-0.2 0.1-0.2 0.3-0.3 1.3-0.9 2.7-1.8 0.6-0.3 1.1-0.6z"/>
	</g>
</svg>